<mxfile host="Electron" modified="2023-12-03T17:44:23.854Z" agent="Mozilla/5.0 (X11; Linux x86_64) AppleWebKit/537.36 (KHTML, like Gecko) draw.io/21.6.1 Chrome/112.0.5615.204 Electron/24.6.2 Safari/537.36" etag="L7wWny36rInmeSq5a5Qm" version="21.6.1" type="device">
  <diagram name="Page-1" id="GEQRo5h9ixli0StdwVT6">
    <mxGraphModel dx="587" dy="728" grid="1" gridSize="10" guides="1" tooltips="1" connect="1" arrows="1" fold="1" page="1" pageScale="1" pageWidth="850" pageHeight="1100" math="0" shadow="0">
      <root>
        <mxCell id="0" />
        <mxCell id="1" parent="0" />
        <mxCell id="AQqeIJzm-4LwvkK71rF2-29" style="edgeStyle=orthogonalEdgeStyle;rounded=0;orthogonalLoop=1;jettySize=auto;html=1;" edge="1" parent="1" source="AQqeIJzm-4LwvkK71rF2-12">
          <mxGeometry relative="1" as="geometry">
            <mxPoint x="60" y="210" as="targetPoint" />
          </mxGeometry>
        </mxCell>
        <mxCell id="AQqeIJzm-4LwvkK71rF2-12" value="انتخاب گزینه ثبت‌نام" style="ellipse;whiteSpace=wrap;html=1;" vertex="1" parent="1">
          <mxGeometry x="180" y="90" width="100" height="60" as="geometry" />
        </mxCell>
        <mxCell id="AQqeIJzm-4LwvkK71rF2-16" style="edgeStyle=orthogonalEdgeStyle;rounded=0;orthogonalLoop=1;jettySize=auto;html=1;entryX=0.5;entryY=0;entryDx=0;entryDy=0;" edge="1" parent="1" source="AQqeIJzm-4LwvkK71rF2-14" target="AQqeIJzm-4LwvkK71rF2-12">
          <mxGeometry relative="1" as="geometry" />
        </mxCell>
        <mxCell id="AQqeIJzm-4LwvkK71rF2-14" value="" style="ellipse;html=1;shape=startState;fillColor=#000000;strokeColor=#ff0000;" vertex="1" parent="1">
          <mxGeometry x="215" y="20" width="30" height="30" as="geometry" />
        </mxCell>
        <mxCell id="AQqeIJzm-4LwvkK71rF2-33" style="edgeStyle=orthogonalEdgeStyle;rounded=0;orthogonalLoop=1;jettySize=auto;html=1;entryX=0.5;entryY=0;entryDx=0;entryDy=0;" edge="1" parent="1" target="AQqeIJzm-4LwvkK71rF2-28">
          <mxGeometry relative="1" as="geometry">
            <mxPoint x="60" y="263" as="sourcePoint" />
          </mxGeometry>
        </mxCell>
        <mxCell id="AQqeIJzm-4LwvkK71rF2-39" value="yes" style="edgeLabel;html=1;align=center;verticalAlign=middle;resizable=0;points=[];" vertex="1" connectable="0" parent="AQqeIJzm-4LwvkK71rF2-33">
          <mxGeometry x="-0.2328" y="-3" relative="1" as="geometry">
            <mxPoint as="offset" />
          </mxGeometry>
        </mxCell>
        <mxCell id="AQqeIJzm-4LwvkK71rF2-36" style="edgeStyle=orthogonalEdgeStyle;rounded=0;orthogonalLoop=1;jettySize=auto;html=1;entryX=0;entryY=0.5;entryDx=0;entryDy=0;" edge="1" parent="1">
          <mxGeometry relative="1" as="geometry">
            <mxPoint x="110" y="236.66" as="sourcePoint" />
            <mxPoint x="179.9999999999999" y="236.66" as="targetPoint" />
          </mxGeometry>
        </mxCell>
        <mxCell id="AQqeIJzm-4LwvkK71rF2-38" value="no" style="edgeLabel;html=1;align=center;verticalAlign=middle;resizable=0;points=[];" vertex="1" connectable="0" parent="AQqeIJzm-4LwvkK71rF2-36">
          <mxGeometry x="-0.1567" y="-1" relative="1" as="geometry">
            <mxPoint as="offset" />
          </mxGeometry>
        </mxCell>
        <mxCell id="AQqeIJzm-4LwvkK71rF2-37" style="edgeStyle=orthogonalEdgeStyle;rounded=0;orthogonalLoop=1;jettySize=auto;html=1;entryX=-0.039;entryY=0.486;entryDx=0;entryDy=0;entryPerimeter=0;" edge="1" parent="1">
          <mxGeometry relative="1" as="geometry">
            <mxPoint x="279.99996697052666" y="238.0344827586207" as="sourcePoint" />
            <mxPoint x="356.1" y="237.15999999999997" as="targetPoint" />
          </mxGeometry>
        </mxCell>
        <mxCell id="AQqeIJzm-4LwvkK71rF2-40" value="no" style="edgeLabel;html=1;align=center;verticalAlign=middle;resizable=0;points=[];" vertex="1" connectable="0" parent="AQqeIJzm-4LwvkK71rF2-37">
          <mxGeometry x="-0.2416" y="-1" relative="1" as="geometry">
            <mxPoint as="offset" />
          </mxGeometry>
        </mxCell>
        <mxCell id="AQqeIJzm-4LwvkK71rF2-41" style="edgeStyle=orthogonalEdgeStyle;rounded=0;orthogonalLoop=1;jettySize=auto;html=1;entryX=0.5;entryY=0;entryDx=0;entryDy=0;" edge="1" parent="1">
          <mxGeometry relative="1" as="geometry">
            <mxPoint x="229.9999999999999" y="262" as="sourcePoint" />
            <mxPoint x="230" y="302" as="targetPoint" />
          </mxGeometry>
        </mxCell>
        <mxCell id="AQqeIJzm-4LwvkK71rF2-42" value="yes" style="edgeLabel;html=1;align=center;verticalAlign=middle;resizable=0;points=[];" vertex="1" connectable="0" parent="AQqeIJzm-4LwvkK71rF2-41">
          <mxGeometry x="-0.4741" y="-3" relative="1" as="geometry">
            <mxPoint as="offset" />
          </mxGeometry>
        </mxCell>
        <mxCell id="AQqeIJzm-4LwvkK71rF2-43" style="edgeStyle=orthogonalEdgeStyle;rounded=0;orthogonalLoop=1;jettySize=auto;html=1;entryX=0.5;entryY=0;entryDx=0;entryDy=0;" edge="1" parent="1">
          <mxGeometry relative="1" as="geometry">
            <mxPoint x="403.4400000000001" y="262" as="sourcePoint" />
            <mxPoint x="403.44" y="302" as="targetPoint" />
          </mxGeometry>
        </mxCell>
        <mxCell id="AQqeIJzm-4LwvkK71rF2-44" value="yes" style="edgeLabel;html=1;align=center;verticalAlign=middle;resizable=0;points=[];" vertex="1" connectable="0" parent="AQqeIJzm-4LwvkK71rF2-43">
          <mxGeometry x="-0.2672" y="1" relative="1" as="geometry">
            <mxPoint as="offset" />
          </mxGeometry>
        </mxCell>
        <mxCell id="AQqeIJzm-4LwvkK71rF2-34" style="edgeStyle=orthogonalEdgeStyle;rounded=0;orthogonalLoop=1;jettySize=auto;html=1;entryX=0.5;entryY=0;entryDx=0;entryDy=0;exitX=0.5;exitY=1;exitDx=0;exitDy=0;" edge="1" parent="1" source="AQqeIJzm-4LwvkK71rF2-28">
          <mxGeometry relative="1" as="geometry">
            <mxPoint x="60" y="368" as="sourcePoint" />
            <mxPoint x="60" y="408" as="targetPoint" />
          </mxGeometry>
        </mxCell>
        <mxCell id="AQqeIJzm-4LwvkK71rF2-28" value="پر کردن فرم مخصوص بیمار" style="ellipse;whiteSpace=wrap;html=1;" vertex="1" parent="1">
          <mxGeometry x="10" y="303" width="100" height="60" as="geometry" />
        </mxCell>
        <mxCell id="AQqeIJzm-4LwvkK71rF2-30" value="پر کردن فرم مخصوص پزشک" style="ellipse;whiteSpace=wrap;html=1;" vertex="1" parent="1">
          <mxGeometry x="178" y="303" width="100" height="60" as="geometry" />
        </mxCell>
        <mxCell id="AQqeIJzm-4LwvkK71rF2-31" value="پر کردن فرم مخصوص بهیار" style="ellipse;whiteSpace=wrap;html=1;" vertex="1" parent="1">
          <mxGeometry x="352.25" y="301" width="100" height="60" as="geometry" />
        </mxCell>
        <mxCell id="AQqeIJzm-4LwvkK71rF2-48" value="بیمار" style="rhombus;whiteSpace=wrap;html=1;" vertex="1" parent="1">
          <mxGeometry x="11.879999999999999" y="212" width="96.25" height="50" as="geometry" />
        </mxCell>
        <mxCell id="AQqeIJzm-4LwvkK71rF2-49" value="پزشک" style="rhombus;whiteSpace=wrap;html=1;" vertex="1" parent="1">
          <mxGeometry x="181.87" y="212" width="96.25" height="50" as="geometry" />
        </mxCell>
        <mxCell id="AQqeIJzm-4LwvkK71rF2-50" value="بهیار" style="rhombus;whiteSpace=wrap;html=1;" vertex="1" parent="1">
          <mxGeometry x="356" y="212" width="96.25" height="50" as="geometry" />
        </mxCell>
        <mxCell id="AQqeIJzm-4LwvkK71rF2-52" style="edgeStyle=orthogonalEdgeStyle;rounded=0;orthogonalLoop=1;jettySize=auto;html=1;entryX=1;entryY=0.467;entryDx=0;entryDy=0;entryPerimeter=0;" edge="1" parent="1" source="AQqeIJzm-4LwvkK71rF2-51">
          <mxGeometry relative="1" as="geometry">
            <mxPoint x="110" y="336.0200000000002" as="targetPoint" />
            <Array as="points">
              <mxPoint x="130" y="433" />
              <mxPoint x="130" y="336" />
            </Array>
          </mxGeometry>
        </mxCell>
        <mxCell id="AQqeIJzm-4LwvkK71rF2-61" value="no" style="edgeLabel;html=1;align=center;verticalAlign=middle;resizable=0;points=[];" vertex="1" connectable="0" parent="AQqeIJzm-4LwvkK71rF2-52">
          <mxGeometry x="0.1098" y="-1" relative="1" as="geometry">
            <mxPoint as="offset" />
          </mxGeometry>
        </mxCell>
        <mxCell id="AQqeIJzm-4LwvkK71rF2-55" style="edgeStyle=orthogonalEdgeStyle;rounded=0;orthogonalLoop=1;jettySize=auto;html=1;entryX=0.5;entryY=0;entryDx=0;entryDy=0;" edge="1" parent="1" source="AQqeIJzm-4LwvkK71rF2-51" target="AQqeIJzm-4LwvkK71rF2-54">
          <mxGeometry relative="1" as="geometry" />
        </mxCell>
        <mxCell id="AQqeIJzm-4LwvkK71rF2-62" value="yes" style="edgeLabel;html=1;align=center;verticalAlign=middle;resizable=0;points=[];" vertex="1" connectable="0" parent="AQqeIJzm-4LwvkK71rF2-55">
          <mxGeometry x="0.1186" y="2" relative="1" as="geometry">
            <mxPoint as="offset" />
          </mxGeometry>
        </mxCell>
        <mxCell id="AQqeIJzm-4LwvkK71rF2-51" value="انتخاب گزینه ثبت و تایید اطلاعات" style="rhombus;whiteSpace=wrap;html=1;" vertex="1" parent="1">
          <mxGeometry x="11.879999999999999" y="408" width="96.25" height="50" as="geometry" />
        </mxCell>
        <mxCell id="AQqeIJzm-4LwvkK71rF2-54" value="وارد شده به پنل ورود" style="ellipse;whiteSpace=wrap;html=1;" vertex="1" parent="1">
          <mxGeometry x="9.879999999999999" y="506" width="100" height="60" as="geometry" />
        </mxCell>
        <mxCell id="AQqeIJzm-4LwvkK71rF2-56" style="edgeStyle=orthogonalEdgeStyle;rounded=0;orthogonalLoop=1;jettySize=auto;html=1;entryX=0.5;entryY=0;entryDx=0;entryDy=0;exitX=0.5;exitY=1;exitDx=0;exitDy=0;" edge="1" parent="1" source="AQqeIJzm-4LwvkK71rF2-30">
          <mxGeometry relative="1" as="geometry">
            <mxPoint x="228.12" y="368" as="sourcePoint" />
            <mxPoint x="228.12" y="408" as="targetPoint" />
          </mxGeometry>
        </mxCell>
        <mxCell id="AQqeIJzm-4LwvkK71rF2-57" style="edgeStyle=orthogonalEdgeStyle;rounded=0;orthogonalLoop=1;jettySize=auto;html=1;entryX=1;entryY=0.467;entryDx=0;entryDy=0;entryPerimeter=0;" edge="1" parent="1" source="AQqeIJzm-4LwvkK71rF2-59">
          <mxGeometry relative="1" as="geometry">
            <mxPoint x="278.12" y="336" as="targetPoint" />
            <Array as="points">
              <mxPoint x="298.12" y="433" />
              <mxPoint x="298.12" y="336" />
            </Array>
          </mxGeometry>
        </mxCell>
        <mxCell id="AQqeIJzm-4LwvkK71rF2-65" value="no" style="edgeLabel;html=1;align=center;verticalAlign=middle;resizable=0;points=[];" vertex="1" connectable="0" parent="AQqeIJzm-4LwvkK71rF2-57">
          <mxGeometry x="0.1118" y="-2" relative="1" as="geometry">
            <mxPoint as="offset" />
          </mxGeometry>
        </mxCell>
        <mxCell id="AQqeIJzm-4LwvkK71rF2-58" style="edgeStyle=orthogonalEdgeStyle;rounded=0;orthogonalLoop=1;jettySize=auto;html=1;entryX=0.5;entryY=0;entryDx=0;entryDy=0;" edge="1" parent="1" source="AQqeIJzm-4LwvkK71rF2-59" target="AQqeIJzm-4LwvkK71rF2-60">
          <mxGeometry relative="1" as="geometry" />
        </mxCell>
        <mxCell id="AQqeIJzm-4LwvkK71rF2-66" value="yes" style="edgeLabel;html=1;align=center;verticalAlign=middle;resizable=0;points=[];" vertex="1" connectable="0" parent="AQqeIJzm-4LwvkK71rF2-58">
          <mxGeometry x="-0.0672" relative="1" as="geometry">
            <mxPoint as="offset" />
          </mxGeometry>
        </mxCell>
        <mxCell id="AQqeIJzm-4LwvkK71rF2-59" value="انتخاب گزینه ثبت و تایید اطلاعات" style="rhombus;whiteSpace=wrap;html=1;" vertex="1" parent="1">
          <mxGeometry x="180" y="408" width="96.25" height="50" as="geometry" />
        </mxCell>
        <mxCell id="AQqeIJzm-4LwvkK71rF2-60" value="وارد شده به پنل ورود" style="ellipse;whiteSpace=wrap;html=1;" vertex="1" parent="1">
          <mxGeometry x="178" y="506" width="100" height="60" as="geometry" />
        </mxCell>
        <mxCell id="AQqeIJzm-4LwvkK71rF2-68" style="edgeStyle=orthogonalEdgeStyle;rounded=0;orthogonalLoop=1;jettySize=auto;html=1;entryX=0.5;entryY=0;entryDx=0;entryDy=0;exitX=0.5;exitY=1;exitDx=0;exitDy=0;" edge="1" parent="1" source="AQqeIJzm-4LwvkK71rF2-31">
          <mxGeometry relative="1" as="geometry">
            <mxPoint x="402.37" y="368" as="sourcePoint" />
            <mxPoint x="402.37" y="408" as="targetPoint" />
          </mxGeometry>
        </mxCell>
        <mxCell id="AQqeIJzm-4LwvkK71rF2-69" style="edgeStyle=orthogonalEdgeStyle;rounded=0;orthogonalLoop=1;jettySize=auto;html=1;entryX=1;entryY=0.467;entryDx=0;entryDy=0;entryPerimeter=0;" edge="1" parent="1" source="AQqeIJzm-4LwvkK71rF2-73">
          <mxGeometry relative="1" as="geometry">
            <mxPoint x="452.37" y="336" as="targetPoint" />
            <Array as="points">
              <mxPoint x="472.37" y="433" />
              <mxPoint x="472.37" y="336" />
            </Array>
          </mxGeometry>
        </mxCell>
        <mxCell id="AQqeIJzm-4LwvkK71rF2-70" value="no" style="edgeLabel;html=1;align=center;verticalAlign=middle;resizable=0;points=[];" vertex="1" connectable="0" parent="AQqeIJzm-4LwvkK71rF2-69">
          <mxGeometry x="0.1118" y="-2" relative="1" as="geometry">
            <mxPoint as="offset" />
          </mxGeometry>
        </mxCell>
        <mxCell id="AQqeIJzm-4LwvkK71rF2-71" style="edgeStyle=orthogonalEdgeStyle;rounded=0;orthogonalLoop=1;jettySize=auto;html=1;entryX=0.5;entryY=0;entryDx=0;entryDy=0;" edge="1" parent="1" source="AQqeIJzm-4LwvkK71rF2-73" target="AQqeIJzm-4LwvkK71rF2-74">
          <mxGeometry relative="1" as="geometry" />
        </mxCell>
        <mxCell id="AQqeIJzm-4LwvkK71rF2-72" value="yes" style="edgeLabel;html=1;align=center;verticalAlign=middle;resizable=0;points=[];" vertex="1" connectable="0" parent="AQqeIJzm-4LwvkK71rF2-71">
          <mxGeometry x="-0.0672" relative="1" as="geometry">
            <mxPoint as="offset" />
          </mxGeometry>
        </mxCell>
        <mxCell id="AQqeIJzm-4LwvkK71rF2-73" value="انتخاب گزینه ثبت و تایید اطلاعات" style="rhombus;whiteSpace=wrap;html=1;" vertex="1" parent="1">
          <mxGeometry x="354.25" y="408" width="96.25" height="50" as="geometry" />
        </mxCell>
        <mxCell id="AQqeIJzm-4LwvkK71rF2-74" value="وارد شده به پنل ورود" style="ellipse;whiteSpace=wrap;html=1;" vertex="1" parent="1">
          <mxGeometry x="352.25" y="506" width="100" height="60" as="geometry" />
        </mxCell>
      </root>
    </mxGraphModel>
  </diagram>
</mxfile>
